<?xml version="1.0" encoding="iso-8859-1"?>
<!-- Uploaded to: SVG Repo, www.svgrepo.com, Generator: SVG Repo Mixer Tools -->
<svg fill="#000000" height="800px" width="800px" version="1.1" id="Layer_1" xmlns="http://www.w3.org/2000/svg" xmlns:xlink="http://www.w3.org/1999/xlink" 
	 viewBox="0 0 512 512" xml:space="preserve">
<g>
	<g>
		<g>
			<path d="M503.467,290.133H460.8V8.533C460.8,3.82,456.979,0,452.267,0H59.733C55.021,0,51.2,3.82,51.2,8.533v281.6H8.533
				c-4.713,0-8.533,3.82-8.533,8.533v204.8C0,508.18,3.82,512,8.533,512h494.933c4.713,0,8.533-3.82,8.533-8.533v-204.8
				C512,293.954,508.18,290.133,503.467,290.133z M68.267,17.067h375.467v273.067h-17.067V42.667c0-4.713-3.82-8.533-8.533-8.533
				h-102.4H196.267h-102.4c-4.713,0-8.533,3.82-8.533,8.533v247.467H68.267V17.067z M290.133,290.133h-68.267v-17.067h68.267
				V290.133z M298.667,256h-85.333c-4.713,0-8.533,3.82-8.533,8.533v25.6H102.4V51.2h85.333v59.733c0,0.079,0.01,0.155,0.012,0.233
				c0.005,0.184,0.01,0.367,0.028,0.552c0.02,0.219,0.054,0.434,0.09,0.647c0.015,0.086,0.022,0.171,0.039,0.257
				c0.066,0.328,0.154,0.648,0.257,0.962c0.005,0.016,0.007,0.031,0.013,0.047l17.067,51.2c1.161,3.485,4.422,5.835,8.095,5.835
				h8.533v25.6c0,4.713,3.82,8.533,8.533,8.533h51.2c4.713,0,8.533-3.82,8.533-8.533v-25.6h8.533c3.673,0,6.934-2.35,8.095-5.835
				l17.067-51.2c0.005-0.016,0.007-0.032,0.013-0.047c0.102-0.313,0.19-0.633,0.256-0.961c0.018-0.088,0.025-0.175,0.04-0.262
				c0.036-0.212,0.069-0.425,0.089-0.642c0.018-0.186,0.023-0.369,0.028-0.553c0.002-0.078,0.012-0.154,0.012-0.232V51.2H409.6
				v238.933H307.2v-25.6C307.2,259.82,303.38,256,298.667,256z M238.933,170.667h34.133v17.067h-34.133V170.667z M281.6,153.6h-51.2
				h-10.916l-11.378-34.133h95.788L292.516,153.6H281.6z M307.2,102.4H204.8V51.2h102.4V102.4z M494.933,494.933H17.067V307.2
				h42.667h34.133h119.467h85.333h119.467h34.133h42.667V494.933z"/>
			<path d="M153.6,332.8H51.2c-4.713,0-8.533,3.821-8.533,8.533V409.6c0,4.713,3.82,8.533,8.533,8.533h102.4
				c4.713,0,8.533-3.82,8.533-8.533v-68.267C162.133,336.621,158.313,332.8,153.6,332.8z M145.067,401.067H59.733v-51.2h85.333
				V401.067z"/>
			<path d="M51.2,435.2c-4.713,0-8.533,3.82-8.533,8.533V460.8c0,4.713,3.82,8.533,8.533,8.533s8.533-3.82,8.533-8.533v-17.067
				C59.733,439.021,55.913,435.2,51.2,435.2z"/>
			<path d="M153.6,435.2c-4.713,0-8.533,3.82-8.533,8.533V460.8c0,4.713,3.821,8.533,8.533,8.533c4.713,0,8.533-3.82,8.533-8.533
				v-17.067C162.133,439.021,158.313,435.2,153.6,435.2z"/>
			<path d="M119.467,435.2c-4.713,0-8.533,3.82-8.533,8.533V460.8c0,4.713,3.82,8.533,8.533,8.533S128,465.513,128,460.8v-17.067
				C128,439.021,124.18,435.2,119.467,435.2z"/>
			<path d="M85.333,435.2c-4.713,0-8.533,3.82-8.533,8.533V460.8c0,4.713,3.82,8.533,8.533,8.533s8.533-3.82,8.533-8.533v-17.067
				C93.867,439.021,90.046,435.2,85.333,435.2z"/>
			<path d="M349.867,341.333V409.6c0,4.713,3.82,8.533,8.533,8.533h102.4c4.713,0,8.533-3.82,8.533-8.533v-68.267
				c0-4.713-3.82-8.533-8.533-8.533H358.4C353.687,332.8,349.867,336.621,349.867,341.333z M366.933,349.867h85.333v51.2h-85.333
				V349.867z"/>
			<path d="M358.4,435.2c-4.713,0-8.533,3.82-8.533,8.533V460.8c0,4.713,3.82,8.533,8.533,8.533s8.533-3.82,8.533-8.533v-17.067
				C366.933,439.021,363.113,435.2,358.4,435.2z"/>
			<path d="M460.8,435.2c-4.713,0-8.533,3.82-8.533,8.533V460.8c0,4.713,3.821,8.533,8.533,8.533s8.533-3.82,8.533-8.533v-17.067
				C469.333,439.021,465.513,435.2,460.8,435.2z"/>
			<path d="M426.667,435.2c-4.713,0-8.533,3.82-8.533,8.533V460.8c0,4.713,3.82,8.533,8.533,8.533s8.533-3.82,8.533-8.533v-17.067
				C435.2,439.021,431.38,435.2,426.667,435.2z"/>
			<path d="M392.533,435.2c-4.713,0-8.533,3.82-8.533,8.533V460.8c0,4.713,3.821,8.533,8.533,8.533c4.713,0,8.533-3.82,8.533-8.533
				v-17.067C401.067,439.021,397.246,435.2,392.533,435.2z"/>
			<path d="M230.4,332.8h-34.133c-4.713,0-8.533,3.821-8.533,8.533V384c0,4.713,3.82,8.533,8.533,8.533H230.4
				c4.713,0,8.533-3.82,8.533-8.533v-42.667C238.933,336.621,235.113,332.8,230.4,332.8z M221.867,375.467H204.8v-25.6h17.067
				V375.467z"/>
			<path d="M315.733,332.8H281.6c-4.713,0-8.533,3.821-8.533,8.533V384c0,4.713,3.82,8.533,8.533,8.533h34.133
				c4.713,0,8.533-3.82,8.533-8.533v-42.667C324.267,336.621,320.446,332.8,315.733,332.8z M307.2,375.467h-17.067v-25.6H307.2
				V375.467z"/>
			<path d="M230.4,409.6h-34.133c-4.713,0-8.533,3.82-8.533,8.533V460.8c0,4.713,3.82,8.533,8.533,8.533H230.4
				c4.713,0,8.533-3.82,8.533-8.533v-42.667C238.933,413.421,235.113,409.6,230.4,409.6z M221.867,452.267H204.8v-25.6h17.067
				V452.267z"/>
			<path d="M315.733,409.6H281.6c-4.713,0-8.533,3.82-8.533,8.533V460.8c0,4.713,3.82,8.533,8.533,8.533h34.133
				c4.713,0,8.533-3.82,8.533-8.533v-42.667C324.267,413.421,320.446,409.6,315.733,409.6z M307.2,452.267h-17.067v-25.6H307.2
				V452.267z"/>
		</g>
	</g>
</g>
</svg>