<?xml version="1.0" encoding="iso-8859-1"?>
<!-- Uploaded to: SVG Repo, www.svgrepo.com, Generator: SVG Repo Mixer Tools -->
<svg fill="#000000" height="800px" width="800px" version="1.1" id="Layer_1" xmlns="http://www.w3.org/2000/svg" xmlns:xlink="http://www.w3.org/1999/xlink" 
	 viewBox="0 0 512.003 512.003" xml:space="preserve">
<g>
	<g>
		<g>
			<path d="M85.337,409.602c14.142,0,25.6-11.458,25.6-25.6s-11.458-25.6-25.6-25.6c-14.142,0-25.6,11.458-25.6,25.6
				S71.195,409.602,85.337,409.602z M85.337,375.468c4.717,0,8.533,3.817,8.533,8.533c0,4.717-3.817,8.533-8.533,8.533
				c-4.716,0-8.533-3.817-8.533-8.533C76.803,379.285,80.62,375.468,85.337,375.468z"/>
			<path d="M153.603,409.602c14.142,0,25.6-11.458,25.6-25.6s-11.458-25.6-25.6-25.6c-14.142,0-25.6,11.458-25.6,25.6
				S139.461,409.602,153.603,409.602z M153.603,375.468c4.716,0,8.533,3.817,8.533,8.533c0,4.717-3.817,8.533-8.533,8.533
				c-4.717,0-8.533-3.817-8.533-8.533C145.07,379.285,148.887,375.468,153.603,375.468z"/>
			<path d="M221.87,409.602c14.142,0,25.6-11.458,25.6-25.6s-11.458-25.6-25.6-25.6s-25.6,11.458-25.6,25.6
				S207.728,409.602,221.87,409.602z M221.87,375.468c4.716,0,8.533,3.817,8.533,8.533c0,4.717-3.817,8.533-8.533,8.533
				c-4.717,0-8.533-3.817-8.533-8.533C213.337,379.285,217.154,375.468,221.87,375.468z"/>
			<path d="M290.137,409.602c14.142,0,25.6-11.458,25.6-25.6s-11.458-25.6-25.6-25.6s-25.6,11.458-25.6,25.6
				S275.995,409.602,290.137,409.602z M290.137,375.468c4.716,0,8.533,3.817,8.533,8.533c0,4.717-3.817,8.533-8.533,8.533
				s-8.533-3.817-8.533-8.533C281.603,379.285,285.42,375.468,290.137,375.468z"/>
			<path d="M358.403,409.602c14.142,0,25.6-11.458,25.6-25.6s-11.458-25.6-25.6-25.6s-25.6,11.458-25.6,25.6
				S344.261,409.602,358.403,409.602z M358.403,375.468c4.716,0,8.533,3.817,8.533,8.533c0,4.717-3.817,8.533-8.533,8.533
				s-8.533-3.817-8.533-8.533C349.87,379.285,353.687,375.468,358.403,375.468z"/>
			<path d="M426.67,409.602c14.142,0,25.6-11.458,25.6-25.6s-11.458-25.6-25.6-25.6s-25.6,11.458-25.6,25.6
				S412.528,409.602,426.67,409.602z M426.67,375.468c4.716,0,8.533,3.817,8.533,8.533c0,4.717-3.817,8.533-8.533,8.533
				s-8.533-3.817-8.533-8.533C418.137,379.285,421.954,375.468,426.67,375.468z"/>
			<path d="M503.47,494.935h-17.067v-51.2h5.39c11.162,0,20.207-9.049,20.207-20.207v-79.053c0-10.086-7.399-18.425-17.063-19.938
				v-30.306c0-10.282-7.342-18.849-17.067-20.758V45.45c0-10.959-8.889-19.849-19.849-19.849h-28.57
				c-10.959,0-19.849,8.889-19.849,19.849v31.351h-102.4V42.668c0-4.713-3.82-8.533-8.533-8.533h-34.133v-25.6
				c0-4.713-3.82-8.533-8.533-8.533H68.27c-4.713,0-8.533,3.82-8.533,8.533v17.067h-5.751c-10.959,0-19.849,8.889-19.849,19.849
				v228.023c-9.724,1.91-17.067,10.476-17.067,20.758v30.306C7.405,326.052,0,334.39,0,344.475v79.053
				c0,11.158,9.054,20.207,20.215,20.207h5.388v51.2H8.537c-4.713,0-8.533,3.82-8.533,8.533s3.82,8.533,8.533,8.533h25.6h51.2
				H426.67h51.2h25.6c4.713,0,8.533-3.82,8.533-8.533S508.183,494.935,503.47,494.935z M426.67,45.45
				c0-1.534,1.248-2.782,2.782-2.782h28.57c1.534,0,2.782,1.248,2.782,2.782v227.618H426.67V128.002V85.335V45.45z M220.444,164.178
				c2.933-4.414,6.609-8.188,10.812-11.19c0.057-0.04,0.113-0.081,0.17-0.121c0.676-0.478,1.364-0.938,2.066-1.375
				c0.006-0.003,0.011-0.007,0.017-0.011c1.444-0.898,2.942-1.707,4.485-2.427c0.08-0.038,0.162-0.073,0.243-0.11
				c0.669-0.307,1.347-0.596,2.032-0.868c0.125-0.05,0.25-0.1,0.375-0.148c0.71-0.274,1.427-0.531,2.153-0.767
				c0.061-0.02,0.12-0.042,0.181-0.061c1.587-0.509,3.211-0.922,4.862-1.243c0.187-0.036,0.375-0.067,0.563-0.1
				c0.615-0.111,1.234-0.208,1.857-0.293c0.246-0.033,0.493-0.065,0.74-0.094c0.597-0.07,1.197-0.124,1.799-0.169
				c0.237-0.018,0.473-0.04,0.711-0.054c0.826-0.048,1.657-0.078,2.492-0.078s1.666,0.03,2.492,0.078
				c0.238,0.014,0.474,0.036,0.711,0.054c0.602,0.045,1.203,0.099,1.799,0.169c0.247,0.029,0.494,0.061,0.74,0.094
				c0.623,0.084,1.242,0.182,1.857,0.293c0.187,0.034,0.376,0.064,0.563,0.1c1.652,0.321,3.276,0.734,4.863,1.243
				c0.061,0.019,0.12,0.042,0.181,0.061c0.726,0.236,1.443,0.493,2.153,0.767c0.125,0.048,0.25,0.098,0.375,0.148
				c0.686,0.272,1.364,0.561,2.033,0.868c0.081,0.037,0.162,0.072,0.243,0.11c1.543,0.72,3.041,1.529,4.485,2.427
				c0.006,0.003,0.011,0.007,0.017,0.011c0.702,0.437,1.39,0.897,2.066,1.375c0.057,0.04,0.114,0.081,0.17,0.121
				c4.204,3.002,7.88,6.776,10.812,11.19c0.037,0.056,0.078,0.105,0.115,0.159c4.416,6.719,6.992,14.756,6.992,23.398
				c0,23.567-19.1,42.667-42.667,42.667s-42.667-19.1-42.667-42.667c0-8.643,2.577-16.679,6.993-23.399
				C220.367,164.282,220.408,164.233,220.444,164.178z M204.803,119.468h-102.4v-25.6h102.4V119.468z M102.403,136.535h102.4v20.423
				c-5.415,8.989-8.533,19.518-8.533,30.777c0,32.992,26.741,59.733,59.733,59.733s59.733-26.741,59.733-59.733
				c0-11.259-3.119-21.788-8.533-30.777v-20.423h102.4v136.533h-307.2V136.535z M409.603,93.868v25.6h-102.4v-25.6H409.603z
				 M290.137,51.202v34.133v42.667v10.718c-0.044-0.031-0.09-0.059-0.134-0.09c-0.476-0.33-0.957-0.651-1.443-0.967
				c-0.211-0.137-0.423-0.272-0.635-0.407c-0.492-0.312-0.986-0.62-1.488-0.918c-0.141-0.084-0.285-0.163-0.427-0.246
				c-1.115-0.649-2.25-1.265-3.409-1.842c-0.069-0.034-0.137-0.071-0.206-0.106c-0.527-0.26-1.061-0.506-1.596-0.751
				c-0.233-0.106-0.465-0.213-0.699-0.316c-0.521-0.23-1.045-0.454-1.574-0.669c-0.236-0.096-0.474-0.187-0.711-0.28
				c-1.708-0.671-3.454-1.264-5.235-1.778c-0.325-0.094-0.65-0.189-0.977-0.278c-0.478-0.129-0.959-0.251-1.443-0.369
				c-0.391-0.095-0.784-0.184-1.178-0.272c-0.446-0.099-0.892-0.2-1.342-0.289c-0.671-0.133-1.346-0.251-2.024-0.361
				c-0.414-0.067-0.83-0.127-1.247-0.185c-0.611-0.086-1.223-0.166-1.838-0.234c-0.341-0.037-0.683-0.068-1.025-0.099
				c-0.613-0.056-1.228-0.103-1.845-0.14c-0.3-0.018-0.599-0.039-0.901-0.052c-0.915-0.042-1.833-0.07-2.756-0.07
				s-1.841,0.028-2.756,0.07c-0.301,0.014-0.601,0.034-0.901,0.052c-0.617,0.038-1.232,0.084-1.845,0.14
				c-0.342,0.031-0.684,0.062-1.025,0.099c-0.615,0.067-1.228,0.148-1.838,0.234c-0.417,0.058-0.834,0.118-1.248,0.185
				c-0.677,0.11-1.352,0.228-2.023,0.361c-0.451,0.089-0.896,0.19-1.343,0.289c-0.393,0.087-0.786,0.176-1.177,0.272
				c-0.484,0.118-0.965,0.24-1.444,0.369c-0.327,0.088-0.651,0.183-0.975,0.277c-1.781,0.514-3.528,1.107-5.237,1.778
				c-0.237,0.093-0.475,0.184-0.711,0.28c-0.529,0.216-1.054,0.44-1.575,0.67c-0.233,0.103-0.465,0.209-0.697,0.315
				c-0.536,0.245-1.071,0.492-1.598,0.752c-0.067,0.033-0.133,0.069-0.2,0.102c-1.162,0.579-2.301,1.197-3.419,1.847
				c-0.14,0.082-0.283,0.16-0.422,0.243c-0.503,0.298-0.998,0.607-1.491,0.92c-0.211,0.134-0.422,0.268-0.632,0.405
				c-0.486,0.317-0.969,0.638-1.445,0.969c-0.044,0.03-0.089,0.059-0.133,0.089v-10.718V85.335V51.202H290.137z M76.803,17.068
				H247.47v17.067h-34.133c-4.713,0-8.533,3.82-8.533,8.533v34.133h-102.4V45.45c0-10.959-8.889-19.849-19.849-19.849h-5.751V17.068
				z M51.203,45.45c0-1.534,1.248-2.782,2.782-2.782h28.57c1.534,0,2.782,1.248,2.782,2.782v39.885v42.667v145.067H51.203V45.45z
				 M34.137,294.231c0-2.259,1.837-4.096,4.096-4.096h64.171h307.2h64.171c2.259,0,4.096,1.837,4.096,4.096v30.037H34.137V294.231z
				 M17.067,423.528v-79.053c0-1.73,1.411-3.14,3.149-3.14h5.388h460.8h5.39c1.734,0,3.14,1.406,3.14,3.14v79.053
				c0,1.734-1.406,3.14-3.14,3.14H477.87h-51.2H85.337h-51.2H20.215C18.477,426.668,17.067,425.258,17.067,423.528z
				 M418.137,443.735v51.2H93.87v-51.2H418.137z M42.67,494.935v-51.2h34.133v51.2H42.67z M435.203,494.935v-51.2h34.133v51.2
				H435.203z"/>
			<path d="M256.003,213.335c14.142,0,25.6-11.458,25.6-25.6s-11.458-25.6-25.6-25.6s-25.6,11.458-25.6,25.6
				S241.861,213.335,256.003,213.335z M256.003,179.202c4.716,0,8.533,3.817,8.533,8.533s-3.817,8.533-8.533,8.533
				s-8.533-3.817-8.533-8.533S251.287,179.202,256.003,179.202z"/>
		</g>
	</g>
</g>
</svg>