<?xml version="1.0" encoding="iso-8859-1"?>
<!-- Uploaded to: SVG Repo, www.svgrepo.com, Generator: SVG Repo Mixer Tools -->
<svg fill="#000000" height="800px" width="800px" version="1.1" id="Layer_1" xmlns="http://www.w3.org/2000/svg" xmlns:xlink="http://www.w3.org/1999/xlink" 
	 viewBox="0 0 512 512" xml:space="preserve">
<g>
	<g>
		<g>
			<path d="M503.467,0H332.8c-4.713,0-8.533,3.82-8.533,8.533v213.333h-34.133V59.733c0-14.142-11.458-25.6-25.6-25.6h-51.2h-68.267
				h-51.2c-14.142,0-25.6,11.458-25.6,25.6v162.133H51.2c-18.853,0-34.133,15.281-34.133,34.133c0,6.22,1.671,12.045,4.577,17.067
				H8.533C3.82,273.067,0,276.887,0,281.6V384c0,4.713,3.82,8.533,8.533,8.533H25.6v102.4H8.533c-4.713,0-8.533,3.82-8.533,8.533
				S3.82,512,8.533,512h25.6h51.2h341.333h51.2h25.6c4.713,0,8.533-3.82,8.533-8.533s-3.82-8.533-8.533-8.533H486.4v-102.4h17.067
				c4.713,0,8.533-3.82,8.533-8.533V281.6V8.533C512,3.82,508.18,0,503.467,0z M341.333,17.067h153.6v256h-153.6V230.4V17.067z
				 M204.8,51.2v34.133h-51.2V51.2H204.8z M85.333,59.733c0-4.716,3.817-8.533,8.533-8.533h42.667v42.667
				c0,4.713,3.82,8.533,8.533,8.533h68.267c4.713,0,8.533-3.821,8.533-8.533V51.2h42.667c4.717,0,8.533,3.817,8.533,8.533v162.133
				H85.333V59.733z M34.133,256c0-9.427,7.64-17.067,17.067-17.067h25.6h204.8h42.667v34.133H51.2
				C41.773,273.067,34.133,265.427,34.133,256z M42.667,494.933v-102.4H76.8v102.4H42.667z M418.133,392.533v102.4H93.867v-102.4
				H418.133z M469.333,494.933H435.2v-102.4h34.133V494.933z M494.933,375.467h-17.067h-51.2H85.333h-51.2H17.067v-85.333H51.2
				h281.6h162.133V375.467z"/>
			<path d="M366.933,119.467h102.4c4.713,0,8.533-3.82,8.533-8.533V42.667c0-4.713-3.82-8.533-8.533-8.533h-102.4
				c-4.713,0-8.533,3.82-8.533,8.533v68.267C358.4,115.646,362.221,119.467,366.933,119.467z M375.467,51.2H460.8v51.2h-85.333V51.2
				z"/>
			<path d="M366.933,179.2c4.713,0,8.533-3.82,8.533-8.533v-25.6c0-4.713-3.82-8.533-8.533-8.533s-8.533,3.82-8.533,8.533v25.6
				C358.4,175.38,362.221,179.2,366.933,179.2z"/>
			<path d="M469.333,136.533c-4.713,0-8.533,3.82-8.533,8.533v25.6c0,4.713,3.82,8.533,8.533,8.533s8.533-3.82,8.533-8.533v-25.6
				C477.867,140.354,474.046,136.533,469.333,136.533z"/>
			<path d="M435.2,179.2c4.713,0,8.533-3.82,8.533-8.533v-25.6c0-4.713-3.82-8.533-8.533-8.533s-8.533,3.82-8.533,8.533v25.6
				C426.667,175.38,430.487,179.2,435.2,179.2z"/>
			<path d="M401.067,136.533c-4.713,0-8.533,3.82-8.533,8.533v25.6c0,4.713,3.821,8.533,8.533,8.533s8.533-3.82,8.533-8.533v-25.6
				C409.6,140.354,405.78,136.533,401.067,136.533z"/>
			<path d="M366.933,247.467h34.133c4.713,0,8.533-3.82,8.533-8.533V204.8c0-4.713-3.82-8.533-8.533-8.533h-34.133
				c-4.713,0-8.533,3.82-8.533,8.533v34.133C358.4,243.646,362.221,247.467,366.933,247.467z M375.467,213.333h17.067V230.4h-17.067
				V213.333z"/>
			<path d="M469.333,196.267H435.2c-4.713,0-8.533,3.82-8.533,8.533v34.133c0,4.713,3.82,8.533,8.533,8.533h34.133
				c4.713,0,8.533-3.82,8.533-8.533V204.8C477.867,200.087,474.046,196.267,469.333,196.267z M460.8,230.4h-17.067v-17.067H460.8
				V230.4z"/>
			<path d="M153.6,153.6h51.2c4.713,0,8.533-3.821,8.533-8.533s-3.821-8.533-8.533-8.533h-51.2c-4.713,0-8.533,3.82-8.533,8.533
				S148.887,153.6,153.6,153.6z"/>
			<path d="M221.867,170.667h-85.333c-4.713,0-8.533,3.82-8.533,8.533s3.82,8.533,8.533,8.533h85.333
				c4.713,0,8.533-3.82,8.533-8.533S226.58,170.667,221.867,170.667z"/>
			<path d="M85.333,307.2c-14.142,0-25.6,11.458-25.6,25.6c0,14.142,11.458,25.6,25.6,25.6c14.142,0,25.6-11.458,25.6-25.6
				C110.933,318.658,99.476,307.2,85.333,307.2z M85.333,341.333c-4.716,0-8.533-3.817-8.533-8.533c0-4.716,3.817-8.533,8.533-8.533
				c4.717,0,8.533,3.817,8.533,8.533C93.867,337.517,90.05,341.333,85.333,341.333z"/>
			<path d="M153.6,307.2c-14.142,0-25.6,11.458-25.6,25.6c0,14.142,11.458,25.6,25.6,25.6c14.142,0,25.6-11.458,25.6-25.6
				C179.2,318.658,167.742,307.2,153.6,307.2z M153.6,341.333c-4.717,0-8.533-3.817-8.533-8.533c0-4.716,3.817-8.533,8.533-8.533
				c4.716,0,8.533,3.817,8.533,8.533C162.133,337.517,158.317,341.333,153.6,341.333z"/>
			<path d="M221.867,307.2c-14.142,0-25.6,11.458-25.6,25.6c0,14.142,11.458,25.6,25.6,25.6s25.6-11.458,25.6-25.6
				C247.467,318.658,236.009,307.2,221.867,307.2z M221.867,341.333c-4.717,0-8.533-3.817-8.533-8.533
				c0-4.716,3.817-8.533,8.533-8.533c4.716,0,8.533,3.817,8.533,8.533C230.4,337.517,226.583,341.333,221.867,341.333z"/>
			<path d="M290.133,307.2c-14.142,0-25.6,11.458-25.6,25.6c0,14.142,11.458,25.6,25.6,25.6s25.6-11.458,25.6-25.6
				C315.733,318.658,304.276,307.2,290.133,307.2z M290.133,341.333c-4.716,0-8.533-3.817-8.533-8.533
				c0-4.716,3.817-8.533,8.533-8.533s8.533,3.817,8.533,8.533C298.667,337.517,294.85,341.333,290.133,341.333z"/>
			<path d="M358.4,358.4c14.142,0,25.6-11.458,25.6-25.6c0-14.142-11.458-25.6-25.6-25.6s-25.6,11.458-25.6,25.6
				C332.8,346.942,344.258,358.4,358.4,358.4z M358.4,324.267c4.716,0,8.533,3.817,8.533,8.533c0,4.717-3.817,8.533-8.533,8.533
				s-8.533-3.817-8.533-8.533C349.867,328.083,353.684,324.267,358.4,324.267z"/>
			<path d="M426.667,358.4c14.142,0,25.6-11.458,25.6-25.6c0-14.142-11.458-25.6-25.6-25.6s-25.6,11.458-25.6,25.6
				C401.067,346.942,412.525,358.4,426.667,358.4z M426.667,324.267c4.716,0,8.533,3.817,8.533,8.533
				c0,4.717-3.817,8.533-8.533,8.533s-8.533-3.817-8.533-8.533C418.133,328.083,421.95,324.267,426.667,324.267z"/>
		</g>
	</g>
</g>
</svg>