<?xml version="1.0" encoding="iso-8859-1"?>
<!-- Uploaded to: SVG Repo, www.svgrepo.com, Generator: SVG Repo Mixer Tools -->
<!DOCTYPE svg PUBLIC "-//W3C//DTD SVG 1.1//EN" "http://www.w3.org/Graphics/SVG/1.1/DTD/svg11.dtd">
<svg fill="#000000" height="800px" width="800px" version="1.1" id="Capa_1" xmlns="http://www.w3.org/2000/svg" xmlns:xlink="http://www.w3.org/1999/xlink" 
	 viewBox="0 0 312 312" xml:space="preserve">
<g>
	<path d="M42,93.832c-5.514,0-10,4.486-10,10s4.486,10,10,10s10-4.486,10-10S47.514,93.832,42,93.832z"/>
	<path d="M42,66c-5.514,0-10,4.486-10,10s4.486,10,10,10s10-4.486,10-10S47.514,66,42,66z"/>
	<path d="M247.78,125.854h-0.01c-4.142,0-7.495,3.357-7.495,7.5s3.363,7.5,7.505,7.5c4.143,0,7.5-3.357,7.5-7.5
		S251.923,125.854,247.78,125.854z"/>
	<path d="M158.479,16.5v-9c0-4.143-3.357-7.5-7.5-7.5h-33c-4.143,0-7.5,3.357-7.5,7.5v47.671H81.436V40.5c0-4.143-3.357-7.5-7.5-7.5
		H11.5C7.357,33,4,36.357,4,40.5v231c0,4.143,3.357,7.5,7.5,7.5h13.535c-2.831,3.484-4.535,7.919-4.535,12.748
		C20.5,302.915,29.585,312,40.752,312c11.168,0,20.253-9.085,20.253-20.252c0-4.829-1.704-9.264-4.535-12.748h199.565
		c-2.831,3.484-4.535,7.919-4.535,12.748c0,11.167,9.085,20.252,20.252,20.252c11.168,0,20.253-9.085,20.253-20.252
		c0-4.829-1.704-9.264-4.535-12.748h13.03c4.143,0,7.5-3.357,7.5-7.5V102.773c0-4.143-3.357-7.5-7.5-7.5h-1V57
		c0-4.143-3.357-7.5-7.5-7.5h-33c-4.143,0-7.5,3.357-7.5,7.5v9h-0.75c-9.512,0-17.25-7.738-17.25-17.25
		c0-17.782-14.468-32.25-32.25-32.25H158.479z M40.752,297c-2.896,0-5.252-2.356-5.252-5.252c0-2.896,2.356-5.253,5.252-5.253
		c2.896,0,5.253,2.356,5.253,5.253C46.005,294.644,43.648,297,40.752,297z M271.752,297c-2.896,0-5.252-2.356-5.252-5.252
		c0-2.896,2.356-5.253,5.252-5.253c2.896,0,5.253,2.356,5.253,5.253C277.005,294.644,274.648,297,271.752,297z M81.436,95H89v11.5
		c0,2.762,2.238,5,5,5h82.5c2.762,0,5-2.238,5-5V95h6.022v60.377H81.436V95z M131.504,81h6.5v20.5h-6.5V81z M202.522,155.377
		v-45.104H293v45.104H202.522z M266.5,64.5h18v30.773h-18V64.5z M158.479,31.5h42.771c9.512,0,17.25,7.738,17.25,17.25
		c0,17.782,14.468,32.25,32.25,32.25h0.75v14.273h-48.978V62.671c0-4.143-3.357-7.5-7.5-7.5h-36.544V31.5z M158.479,73.5v-3.329
		h29.044V85H176.5c-2.762,0-5,2.238-5,5v11.5h-23.496V81h2.974C155.121,81,158.479,77.643,158.479,73.5z M125.479,15h18v51h-18V15z
		 M110.479,70.171V73.5c0,4.143,3.357,7.5,7.5,7.5h3.526v20.5H99V90c0-2.762-2.238-5-5-5H81.436V70.171H110.479z M66.436,264H19V48
		h47.436V264z M81.436,171.433h106.087V264H81.436V171.433z M202.522,264v-92.567H293V264H202.522z"/>
	<path d="M176.5,134.5H94c-2.762,0-5,2.238-5,5s2.238,5,5,5h82.5c2.762,0,5-2.238,5-5S179.262,134.5,176.5,134.5z"/>
	<path d="M160,233.5h-49.5c-2.762,0-5,2.238-5,5s2.238,5,5,5H160c2.762,0,5-2.238,5-5S162.762,233.5,160,233.5z"/>
	<path d="M160,217h-49.5c-2.762,0-5,2.238-5,5s2.238,5,5,5H160c2.762,0,5-2.238,5-5S162.762,217,160,217z"/>
	<path d="M134.498,196.5c4.143,0,7.5-3.357,7.5-7.5s-3.357-7.5-7.5-7.5h-0.01c-4.142,0-7.495,3.357-7.495,7.5
		S130.356,196.5,134.498,196.5z"/>
</g>
</svg>