<?xml version="1.0" encoding="iso-8859-1"?>
<!-- Uploaded to: SVG Repo, www.svgrepo.com, Generator: SVG Repo Mixer Tools -->
<svg fill="#000000" height="800px" width="800px" version="1.1" id="Capa_1" xmlns="http://www.w3.org/2000/svg" xmlns:xlink="http://www.w3.org/1999/xlink" 
	 viewBox="0 0 461 461" xml:space="preserve">
<g>
	<path d="M62.5,233c7.995,0,14.5-6.505,14.5-14.5S70.495,204,62.5,204S48,210.505,48,218.5S54.505,233,62.5,233z"/>
	<path d="M254.5,233c7.995,0,14.5-6.505,14.5-14.5s-6.505-14.5-14.5-14.5s-14.5,6.505-14.5,14.5S246.505,233,254.5,233z"/>
	<path d="M302.5,233c7.995,0,14.5-6.505,14.5-14.5s-6.505-14.5-14.5-14.5s-14.5,6.505-14.5,14.5S294.505,233,302.5,233z"/>
	<path d="M350.5,233c7.995,0,14.5-6.505,14.5-14.5s-6.505-14.5-14.5-14.5s-14.5,6.505-14.5,14.5S342.505,233,350.5,233z"/>
	<path d="M398.5,233c7.995,0,14.5-6.505,14.5-14.5s-6.505-14.5-14.5-14.5s-14.5,6.505-14.5,14.5S390.505,233,398.5,233z"/>
	<path d="M206.5,233c7.995,0,14.5-6.505,14.5-14.5s-6.505-14.5-14.5-14.5s-14.5,6.505-14.5,14.5S198.505,233,206.5,233z"/>
	<path d="M158.5,233c7.995,0,14.5-6.505,14.5-14.5s-6.505-14.5-14.5-14.5s-14.5,6.505-14.5,14.5S150.505,233,158.5,233z"/>
	<path d="M110.5,233c7.995,0,14.5-6.505,14.5-14.5s-6.505-14.5-14.5-14.5S96,210.505,96,218.5S102.505,233,110.5,233z"/>
	<path d="M453.5,219h-7.513c0.002-0.167,0.013-0.332,0.013-0.5c0-20.765-13.399-38.448-32-44.889V114.5c0-4.142-3.357-7.5-7.5-7.5
		h-64c-4.143,0-7.5,3.358-7.5,7.5V171h-17v-56.5c0-4.142-3.357-7.5-7.5-7.5h-64c-4.143,0-7.5,3.358-7.5,7.5V171h-17v-56.5
		c0-4.142-3.357-7.5-7.5-7.5h-64c-4.143,0-7.5,3.358-7.5,7.5V171h-17v-56.5c0-4.142-3.357-7.5-7.5-7.5h-64
		c-4.143,0-7.5,3.358-7.5,7.5v59.111c-18.601,6.441-32,24.125-32,44.889c0,0.168,0.011,0.333,0.013,0.5H7.5
		c-4.143,0-7.5,3.358-7.5,7.5v64c0,3.973,3.092,7.216,7,7.475V346.5c0,4.142,3.357,7.5,7.5,7.5s7.5-3.358,7.5-7.5V298h129v48.5
		c0,4.142,3.357,7.5,7.5,7.5s7.5-3.358,7.5-7.5V298h129v48.5c0,4.142,3.357,7.5,7.5,7.5s7.5-3.358,7.5-7.5V298h129v48.5
		c0,4.142,3.357,7.5,7.5,7.5s7.5-3.358,7.5-7.5v-48.525c3.908-0.259,7-3.501,7-7.475v-64C461,222.358,457.643,219,453.5,219z
		 M350,122h17v8.5c0,4.142,3.357,7.5,7.5,7.5s7.5-3.358,7.5-7.5V122h17v49h-0.5H350V122z M254,122h17v8.5c0,4.142,3.357,7.5,7.5,7.5
		s7.5-3.358,7.5-7.5V122h17v49h-49V122z M158,122h17v8.5c0,4.142,3.357,7.5,7.5,7.5s7.5-3.358,7.5-7.5V122h17v49h-49V122z M62,171
		v-49h17v8.5c0,4.142,3.357,7.5,7.5,7.5s7.5-3.358,7.5-7.5V122h17v49H62.5H62z M62.5,186h336c17.921,0,32.5,14.579,32.5,32.5
		S416.421,251,398.5,251h-336C44.579,251,30,236.421,30,218.5S44.579,186,62.5,186z M15,234h2.611c6.442,18.601,24.125,32,44.889,32
		h336c20.765,0,38.448-13.399,44.889-32H446v49H15V234z"/>
</g>
</svg>