<?xml version="1.0" encoding="iso-8859-1"?>
<!-- Uploaded to: SVG Repo, www.svgrepo.com, Generator: SVG Repo Mixer Tools -->
<svg fill="#000000" height="800px" width="800px" version="1.1" id="Layer_1" xmlns="http://www.w3.org/2000/svg" xmlns:xlink="http://www.w3.org/1999/xlink" 
	 viewBox="0 0 512.003 512.003" xml:space="preserve">
<g>
	<g>
		<g>
			<path d="M349.87,204.802h68.267c4.713,0,8.533-3.82,8.533-8.533v-51.2c0-4.713-3.82-8.533-8.533-8.533H349.87
				c-4.713,0-8.533,3.82-8.533,8.533v51.2C341.337,200.981,345.157,204.802,349.87,204.802z M358.403,153.602h51.2v34.133h-51.2
				V153.602z"/>
			<path d="M204.803,51.202h-102.4c-4.713,0-8.533,3.82-8.533,8.533v68.267c0,4.713,3.82,8.533,8.533,8.533h102.4
				c4.713,0,8.533-3.82,8.533-8.533V59.735C213.337,55.022,209.516,51.202,204.803,51.202z M196.27,119.468h-85.333v-51.2h85.333
				V119.468z"/>
			<path d="M85.337,358.402c14.142,0,25.6-11.458,25.6-25.6c0-14.142-11.458-25.6-25.6-25.6c-14.142,0-25.6,11.458-25.6,25.6
				C59.737,346.944,71.195,358.402,85.337,358.402z M85.337,324.268c4.717,0,8.533,3.817,8.533,8.533
				c0,4.717-3.817,8.533-8.533,8.533c-4.716,0-8.533-3.817-8.533-8.533C76.803,328.085,80.62,324.268,85.337,324.268z"/>
			<path d="M153.603,358.402c14.142,0,25.6-11.458,25.6-25.6c0-14.142-11.458-25.6-25.6-25.6c-14.142,0-25.6,11.458-25.6,25.6
				C128.003,346.944,139.461,358.402,153.603,358.402z M153.603,324.268c4.716,0,8.533,3.817,8.533,8.533
				c0,4.717-3.817,8.533-8.533,8.533c-4.717,0-8.533-3.817-8.533-8.533C145.07,328.085,148.887,324.268,153.603,324.268z"/>
			<path d="M221.87,358.402c14.142,0,25.6-11.458,25.6-25.6c0-14.142-11.458-25.6-25.6-25.6s-25.6,11.458-25.6,25.6
				C196.27,346.944,207.728,358.402,221.87,358.402z M221.87,324.268c4.716,0,8.533,3.817,8.533,8.533
				c0,4.717-3.817,8.533-8.533,8.533c-4.717,0-8.533-3.817-8.533-8.533C213.337,328.085,217.154,324.268,221.87,324.268z"/>
			<path d="M290.137,358.402c14.142,0,25.6-11.458,25.6-25.6c0-14.142-11.458-25.6-25.6-25.6s-25.6,11.458-25.6,25.6
				C264.537,346.944,275.995,358.402,290.137,358.402z M290.137,324.268c4.716,0,8.533,3.817,8.533,8.533
				c0,4.717-3.817,8.533-8.533,8.533s-8.533-3.817-8.533-8.533C281.603,328.085,285.42,324.268,290.137,324.268z"/>
			<path d="M358.403,358.402c14.142,0,25.6-11.458,25.6-25.6c0-14.142-11.458-25.6-25.6-25.6s-25.6,11.458-25.6,25.6
				C332.803,346.944,344.261,358.402,358.403,358.402z M358.403,324.268c4.716,0,8.533,3.817,8.533,8.533
				c0,4.717-3.817,8.533-8.533,8.533s-8.533-3.817-8.533-8.533C349.87,328.085,353.687,324.268,358.403,324.268z"/>
			<path d="M426.67,358.402c14.142,0,25.6-11.458,25.6-25.6c0-14.142-11.458-25.6-25.6-25.6s-25.6,11.458-25.6,25.6
				C401.07,346.944,412.528,358.402,426.67,358.402z M426.67,324.268c4.716,0,8.533,3.817,8.533,8.533
				c0,4.717-3.817,8.533-8.533,8.533s-8.533-3.817-8.533-8.533C418.137,328.085,421.954,324.268,426.67,324.268z"/>
			<path d="M503.47,494.935h-17.067v-102.4h5.39c11.162,0,20.207-9.049,20.207-20.207v-79.053c0-10.086-7.399-18.425-17.063-19.938
				v-30.306c0-11.685-9.478-21.163-21.163-21.163h-4.437V59.735c0-14.142-11.458-25.6-25.6-25.6h-179.2v-8.533
				c0-14.142-11.458-25.6-25.6-25.6H68.27c-14.142,0-25.6,11.458-25.6,25.6v196.267h-4.437c-11.685,0-21.163,9.478-21.163,21.163
				v30.306C7.405,274.852,0,283.19,0,293.275v79.053c0,11.158,9.054,20.207,20.215,20.207h5.388v102.4H8.537
				c-4.713,0-8.533,3.82-8.533,8.533s3.82,8.533,8.533,8.533h25.6h51.2H426.67h51.2h25.6c4.713,0,8.533-3.82,8.533-8.533
				S508.183,494.935,503.47,494.935z M443.737,51.202c4.717,0,8.533,3.817,8.533,8.533v162.133H264.537V51.202H443.737z
				 M59.737,25.602c0-4.716,3.817-8.533,8.533-8.533h170.667c4.716,0,8.533,3.817,8.533,8.533v17.067v179.2H59.737V25.602z
				 M34.137,243.031c0-2.259,1.837-4.096,4.096-4.096h12.971h204.8h204.8h12.971c2.259,0,4.096,1.837,4.096,4.096v30.037H34.137
				V243.031z M17.067,372.328v-79.053c0-1.73,1.411-3.14,3.149-3.14h5.388h460.8h5.39c1.734,0,3.14,1.406,3.14,3.14v79.053
				c0,1.734-1.406,3.14-3.14,3.14H477.87h-51.2H85.337h-51.2H20.215C18.477,375.468,17.067,374.058,17.067,372.328z
				 M418.137,392.535v102.4H93.87v-102.4H418.137z M42.67,494.935v-102.4h34.133v102.4H42.67z M435.203,494.935v-102.4h34.133v102.4
				H435.203z"/>
		</g>
	</g>
</g>
</svg>