<?xml version="1.0" encoding="iso-8859-1"?>
<!-- Uploaded to: SVG Repo, www.svgrepo.com, Generator: SVG Repo Mixer Tools -->
<svg fill="#000000" height="800px" width="800px" version="1.1" id="Layer_1" xmlns="http://www.w3.org/2000/svg" xmlns:xlink="http://www.w3.org/1999/xlink" 
	 viewBox="0 0 512.003 512.003" xml:space="preserve">
<g>
	<g>
		<g>
			<path d="M491.788,443.735c11.162,0,20.215-9.049,20.215-20.207v-79.053c0-10.086-7.405-18.424-17.07-19.938v-30.306
				c0-11.685-9.478-21.163-21.163-21.163h-4.437V8.535c0-4.713-3.82-8.533-8.533-8.533h-42.667c-4.713,0-8.533,3.82-8.533,8.533
				v34.133h-42.667v-25.6c0-4.713-3.82-8.533-8.533-8.533H170.667c-4.713,0-8.533,3.82-8.533,8.533v25.6h-42.667V8.535
				c0-4.713-3.82-8.533-8.533-8.533H42.667c-4.713,0-8.533,3.82-8.533,8.533v264.938c-9.724,1.91-17.067,10.476-17.067,20.758
				v30.306c-9.664,1.514-17.063,9.852-17.063,19.938v79.053c0,11.157,9.045,20.207,20.207,20.207h5.39v51.2H8.533
				c-4.713,0-8.533,3.82-8.533,8.533s3.82,8.533,8.533,8.533h25.6h51.2h341.333h51.2h25.6c4.713,0,8.533-3.82,8.533-8.533
				s-3.82-8.533-8.533-8.533H486.4v-51.2H491.788z M426.667,17.068h25.6v256h-25.6V85.335V51.202V17.068z M119.467,273.068v-179.2
				h42.667v59.733c0,0.078,0.01,0.154,0.012,0.232c0.005,0.184,0.01,0.368,0.028,0.553c0.02,0.217,0.053,0.43,0.089,0.642
				c0.015,0.088,0.022,0.174,0.04,0.262c0.066,0.328,0.154,0.648,0.256,0.961c0.005,0.016,0.007,0.031,0.013,0.047l17.067,51.2
				c1.161,3.485,4.422,5.835,8.095,5.835h25.6v25.6c0,4.713,3.82,8.533,8.533,8.533H307.2c4.713,0,8.533-3.82,8.533-8.533v-25.6
				h25.6c3.673,0,6.934-2.35,8.095-5.835l17.067-51.2c0.005-0.016,0.007-0.031,0.013-0.047c0.102-0.313,0.19-0.633,0.256-0.961
				c0.018-0.088,0.025-0.174,0.04-0.262c0.036-0.212,0.069-0.425,0.089-0.642c0.018-0.186,0.023-0.369,0.028-0.553
				c0.002-0.078,0.012-0.154,0.012-0.232V93.868H409.6v179.2H119.467z M230.4,213.335h68.267v17.067H230.4V213.335z M307.2,196.268
				h-85.333h-27.983l-11.378-34.133h164.055l-11.378,34.133H307.2z M409.6,59.735v17.067h-42.667V59.735H409.6z M179.2,25.602
				h170.667v25.6v34.133v59.733H179.2V85.335V51.202V25.602z M162.133,59.735v17.067h-42.667V59.735H162.133z M51.2,17.068h51.2
				v34.133v34.133v187.733H51.2V17.068z M34.133,294.231c0-2.259,1.837-4.096,4.096-4.096h4.437h68.267h307.2H460.8h12.971
				c2.259,0,4.096,1.837,4.096,4.096v30.037H34.133V294.231z M17.07,423.528v-79.053c0-1.734,1.406-3.14,3.14-3.14h5.39h460.8h5.388
				c1.738,0,3.149,1.41,3.149,3.14v79.053c0,1.73-1.411,3.14-3.149,3.14h-13.921h-51.2H85.333h-51.2H20.21
				C18.476,426.668,17.07,425.262,17.07,423.528z M418.133,443.735v51.2H93.867v-51.2H418.133z M42.667,494.935v-51.2H76.8v51.2
				H42.667z M469.333,494.935H435.2v-51.2h34.133V494.935z"/>
			<path d="M426.667,409.602c14.142,0,25.6-11.458,25.6-25.6s-11.458-25.6-25.6-25.6s-25.6,11.458-25.6,25.6
				S412.525,409.602,426.667,409.602z M426.667,375.468c4.716,0,8.533,3.817,8.533,8.533c0,4.717-3.817,8.533-8.533,8.533
				s-8.533-3.817-8.533-8.533C418.133,379.285,421.95,375.468,426.667,375.468z"/>
			<path d="M358.4,409.602c14.142,0,25.6-11.458,25.6-25.6s-11.458-25.6-25.6-25.6s-25.6,11.458-25.6,25.6
				S344.258,409.602,358.4,409.602z M358.4,375.468c4.716,0,8.533,3.817,8.533,8.533c0,4.717-3.817,8.533-8.533,8.533
				s-8.533-3.817-8.533-8.533C349.867,379.285,353.684,375.468,358.4,375.468z"/>
			<path d="M290.133,409.602c14.142,0,25.6-11.458,25.6-25.6s-11.458-25.6-25.6-25.6s-25.6,11.458-25.6,25.6
				S275.991,409.602,290.133,409.602z M290.133,375.468c4.716,0,8.533,3.817,8.533,8.533c0,4.717-3.817,8.533-8.533,8.533
				s-8.533-3.817-8.533-8.533C281.6,379.285,285.417,375.468,290.133,375.468z"/>
			<path d="M221.867,409.602c14.142,0,25.6-11.458,25.6-25.6s-11.458-25.6-25.6-25.6s-25.6,11.458-25.6,25.6
				S207.725,409.602,221.867,409.602z M221.867,375.468c4.716,0,8.533,3.817,8.533,8.533c0,4.717-3.817,8.533-8.533,8.533
				c-4.717,0-8.533-3.817-8.533-8.533C213.333,379.285,217.15,375.468,221.867,375.468z"/>
			<path d="M153.6,409.602c14.142,0,25.6-11.458,25.6-25.6s-11.458-25.6-25.6-25.6c-14.142,0-25.6,11.458-25.6,25.6
				S139.458,409.602,153.6,409.602z M153.6,375.468c4.716,0,8.533,3.817,8.533,8.533c0,4.717-3.817,8.533-8.533,8.533
				c-4.717,0-8.533-3.817-8.533-8.533C145.067,379.285,148.883,375.468,153.6,375.468z"/>
			<path d="M85.333,409.602c14.142,0,25.6-11.458,25.6-25.6s-11.458-25.6-25.6-25.6c-14.142,0-25.6,11.458-25.6,25.6
				S71.191,409.602,85.333,409.602z M85.333,375.468c4.717,0,8.533,3.817,8.533,8.533c0,4.717-3.817,8.533-8.533,8.533
				c-4.716,0-8.533-3.817-8.533-8.533C76.8,379.285,80.617,375.468,85.333,375.468z"/>
		</g>
	</g>
</g>
</svg>